<?xml version="1.0" encoding="utf-8"?>
<!-- Generator: Adobe Illustrator 25.3.1, SVG Export Plug-In . SVG Version: 6.00 Build 0)  -->
<svg version="1.1" id="Layer_1" xmlns="http://www.w3.org/2000/svg" xmlns:xlink="http://www.w3.org/1999/xlink" x="0px" y="0px"
	 viewBox="0 0 792 612" style="enable-background:new 0 0 792 612;" xml:space="preserve">
<style type="text/css">
	.st0{fill:#68C9CE;}
	.st1{fill:#FFFFFF;}
	.st2{fill:#FFCE18;}
	.st3{fill:#E58924;}
	.st4{fill:#CF2927;}
</style>
<g>
	<g>
		<path class="st0" d="M304,353.6c-1.6,3.3-4.2,7.5-9.5,7.5h-0.7c-2.7,3.7-6.6,6.1-10.7,6.1c-4.9,0-8.4-3.5-8.4-9.1
			c0-8.2,6.3-18.1,15-18.1c4.5,0,7.9,2.5,7.9,9.4c0,1.9-0.3,3.8-0.8,5.6h0.4c1.6,0,3-0.8,4.4-2.7C302.2,351.3,304.6,352.4,304,353.6
			z M290.9,350.8c0-1.6-0.9-2.9-3-2.9c-2.7,0-4.5,2.7-4.5,5.1c0,1.6,0.8,2.9,2.8,2.9C289,355.9,290.9,353.1,290.9,350.8z"/>
		<path class="st0" d="M299.8,363.2c0-2.6,0.5-6.5,1.8-10.9c1.8-6.4,4.5-12.3,6.5-12.3c1.5,0,1.8,1,1.8,2.1c0,2.1,1.1,2.8,2.8,1
			c2-2,4.2-3.1,6.6-3.1c3.3,0,4.9,2.3,4.9,5c0,2.9-1.7,4.6-1.7,7.3c0,1.8,0.8,2.7,2.6,2.7c1.6,0,2.7-1.1,3.8-2.8
			c0.9-1.3,3,0.3,2.4,1.4c-1.7,3-5.4,13.6-12.8,13.6c-3.4,0-4.6-2.6-4.6-5.7c0-4.1,2.3-7.8,2.3-10c0-1.3-0.8-1.9-2.1-1.9
			c-3.2,0-5.9,4.5-5.9,9.4v2.4c0,2.8-0.7,5.8-4.5,5.8C301.2,367.2,299.8,365.5,299.8,363.2z"/>
		<path class="st0" d="M341.4,362.4c0-6.2,4-12.4,10.1-12.4c0.6,0,1.1,0.4,1.1,0.9c0,3.4,3.3,5.6,7.5,5.6c4.7,0,10.7-3.9,14.3-13
			c1.3-3.4,2.7-7.3,4-10.6c1-2.7,2.7-3.7,4.9-3.7c3.2,0,3.9,1.6,3.4,4.1c-1.1,5-6.7,15.5-6.7,20.1c0,2,1.1,3.5,3.7,3.5
			c6.6,0,11.4-10.3,11.4-19.3c0-6.5-3-12.2-13.5-12.2c-7.2,0-14.2,3.3-14.2,11.2c0,2.2,1.2,3.9,2.9,3.9c2.1,0.3-2.6,9.9-10,9.9
			c-6.2,0-9.5-5.3-9.5-11.1c0-13,12.3-24.1,29.7-24.1c19.4,0,26,11.3,26,24.3c0,16.2-10.6,33.1-22.8,33.1c-6.3,0-10.1-4.1-10.5-10.4
			c-4.3,7.9-10.8,12.9-18.7,12.9C345.2,375.2,341.4,368.7,341.4,362.4z"/>
		<path class="st0" d="M406.3,362.5c0-3.6,0.8-7.7,1.9-11.3c3.5-11,6.6-17.2,11-17.2c1.6,0,2.6,1,2.6,3.4c0,4.6-3.4,9.7-3.4,13.8
			c0,2.5,1.4,3.8,3.4,3.8c2.3,0,3.7-1.5,5.3-3.8c1.2-1.8,4.2,0.5,3.4,1.8c-2.4,4.1-7.3,19-17.1,19
			C408.2,372,406.3,367.8,406.3,362.5z M415,325.4c0-5.4,3.4-7,7.6-7c3.9,0,7,1.4,6.6,6.2c-0.5,4.7-3.6,6.2-7.5,6.2
			C418.1,330.8,415,329.4,415,325.4z"/>
		<path class="st0" d="M464.3,353c-2.2,4.6-5.9,10.4-13.3,10.4c-1.3,0-2.5-0.4-3.6-1.1c-3.8,5.5-8.3,9.6-12.9,9.6
			c-8.1,0-10.1-11.3-7.7-20.8c1.9-8,6-17.2,10.2-17.2c1.5,0,2.4,0.8,2.4,3c0,4.3-3.4,10.1-3.4,14.5c0,2.9,1.4,4.7,4.5,4.7
			c3.2,0,4.8-1.8,5.6-3c-0.5-2.4-0.8-4.6-0.8-7.1c0-6.7,2.4-12.4,7.6-12.4c6.4,0,5.5,8.7-0.7,20.6c0.8,0.3,1.7,0.5,2.7,0.5
			c2.2,0,4.3-1.1,6.1-3.7C461.8,349.8,465.1,351.3,464.3,353z"/>
		<path class="st0" d="M459,362.5c0-3.6,0.8-7.7,1.9-11.3c3.5-11,6.6-17.2,11-17.2c1.6,0,2.6,1,2.6,3.4c0,4.6-3.4,9.7-3.4,13.8
			c0,2.5,1.4,3.8,3.4,3.8c2.3,0,3.7-1.5,5.3-3.8c1.2-1.8,4.2,0.5,3.4,1.8c-2.4,4.1-7.3,19-17.1,19C460.9,372,459,367.8,459,362.5z
			 M467.7,325.4c0-5.4,3.4-7,7.6-7c3.9,0,7,1.4,6.6,6.2c-0.5,4.7-3.6,6.2-7.5,6.2C470.8,330.8,467.7,329.4,467.7,325.4z"/>
		<path class="st0" d="M512.6,353c-2.1,4.4-8.4,18.9-22.5,18.9c-13.4,0-15-13.2-10.4-20.8l0.3-0.5c5.4-7.3,10.8-18.7,17.4-18.7
			c4.7,0,7,2.7,6.9,5.2c0.1,2.4-5.5,2.7-5.5,5.7c0,1.4,4,7.5,5,12.3c2.3-0.1,3.9-1.8,5.4-4C510.4,349.3,513.3,351.6,512.6,353z
			 M492.6,350.7c0-1.8-0.6-3.7-1.7-5.8c-0.5-1-1.1-1-1.8,0c-1.9,2.8-4.3,5.9-6,8.1c0,1.8,1.8,3.2,4.3,3.2
			C490.7,356.2,492.6,353.8,492.6,350.7z"/>
		<path class="st0" d="M507.2,362.5c0-3.6,0.8-7.7,1.9-11.3c3.5-11,6.6-17.2,11-17.2c1.6,0,2.6,1,2.6,3.4c0,4.6-3.4,9.7-3.4,13.8
			c0,2.5,1.4,3.8,3.4,3.8c2.3,0,3.7-1.5,5.3-3.8c1.2-1.8,4.2,0.5,3.4,1.8c-2.4,4.1-7.3,19-17.1,19
			C509.1,372,507.2,367.8,507.2,362.5z M515.9,325.4c0-5.4,3.4-7,7.6-7c3.9,0,7,1.4,6.6,6.2c-0.5,4.7-3.6,6.2-7.5,6.2
			C519,330.8,515.9,329.4,515.9,325.4z"/>
		<path class="st0" d="M567.5,353c-2.2,4.6-5.9,10.4-13.3,10.4h-0.9c-3.8,5.2-9.2,8.5-14.9,8.5c-6.9,0-11.8-4.9-11.8-12.8
			c0-11.4,8.8-25.3,20.9-25.3c6.2,0,11.1,3.5,11.1,13.1c0,2.7-0.4,5.3-1.1,7.8h0.5c2.2,0,4.3-1.1,6.1-3.7
			C565,349.8,568.3,351.3,567.5,353z M549.1,349.1c0-2.2-1.2-4-4.2-4c-3.7,0-6.2,3.7-6.2,7.1c0,2.2,1.1,4.1,4,4.1
			C546.5,356.2,549.1,352.3,549.1,349.1z"/>
		<path class="st0" d="M561.5,366.4c0-3.6,0.8-9.1,2.5-15.3c2.5-8.9,6.3-17.2,9.1-17.2c2.1,0,2.5,1.4,2.5,2.9c0,3,1.5,3.9,4,1.4
			c2.8-2.7,5.9-4.3,9.2-4.3c4.6,0,6.9,3.2,6.9,7c0,4-2.4,6.5-2.4,10.3c0,2.6,1.1,3.8,3.7,3.8c2.3,0,3.7-1.6,5.3-3.9
			c1.2-1.8,4.3,0.5,3.4,1.9c-2.4,4.2-7.6,19-17.9,19c-4.8,0-6.5-3.7-6.5-7.9c0-5.8,3.2-10.9,3.2-14c0-1.8-1.1-2.7-2.9-2.7
			c-4.4,0-8.2,6.3-8.2,13.1v3.4c0,3.9-1,8.1-6.2,8.1C563.5,372,561.5,369.6,561.5,366.4z"/>
	</g>
	<path class="st0" d="M387.8,296c-2.2,3.4-5.7,5.5-10.1,5.5c-6.5,0-9.9-4.8-7.6-12.5c2.1-7.3,2.7-7.6,12.9-7.6
		c4.4,0,5.7-10.1,2.7-10.1h-5.7c-2.1,0-1.8-1.9-0.1-5.4c3.4-6.9,2-10.3-2.1-10.3c-2.7,0-5.2,1-7.8,7.3c-1.5,3.9-5,8.3-11.4,8.3
		c-2.5,0-2.4,8.4,3.9,8.4c-2.2,6.1-4.2,11.4-5.8,16.1c0,0-0.1,0.1-0.1,0.1c-2.2,3.3-4.5,5.7-7.8,5.8c-1.4-6.8-7.2-15.6-7.2-17.7
		c0-4.4,8-4.7,7.9-8.2c0.1-3.5-3.2-7.5-10-7.5c-9.4,0-17.2,16.3-25,26.9c0,0-0.4,0.6-0.4,0.7c-2.2,3.5-4.9,5.6-8.7,5.6
		c-4.8,0-6-4.4-2.3-12.4c2.4-6.4,5.3-9.8,5.3-13.9c0-2.4-1-4.1-3.8-4.1c-5.2,0-5.9,4.2-9.5,4.2c-2.9,0-2.4-4.2-11.2-4.2
		c-13.8,0-22.6,12.4-26.3,25c-3.7,5.3-11,8-19.3,8c-10.5,0-16.3-3.1-16.3-8.1c0-3.2,2-6.5,5-7.2c3.2,2.2,6.2,2.9,9.2,2.9
		c9,0,13.2-3.1,13.2-8.8c0-2.9-0.7-4.3-2.5-4.3c-3.1,0-7.2,1.1-13,1.1c-2.9-1.3-4.9-4.2-4.9-7.8c0-1.8,0.5-3.6,1.4-5.1
		c-0.1,0.2,7.4,5,8.1,5.4c2.7,1.5,5.8,2.4,8.9,2.3c2.7-0.2,5.8-0.5,7.9-2.3c2.1-1.7,3.3-4.3,3.8-6.8c0.3-1.3,0.4-2.7,0.4-4
		c0-6.2-2.9-17.2-19.4-17.2c-9.5,0-17,3-21.7,8.1c-5.5-1.9-11.1-3.2-16.8-4.4c-4.6-1-9.3-1.5-13.8,0.2c-4.1,1.5-7.9,4.3-10.4,7.9
		c-2.5,3.7-3.3,9,0,12.5c2.7,2.8,7,3.3,10.6,2.1c4.6-1.6,7-5.7,10.9-8.3c2.1-1.4,4.7-1.9,7.2-2c2.3-0.1,4.6,0.4,6.9,0.3
		c0.7,0,0.9-0.2,0.7,0.6c-0.1,0.6-0.2,1.1-0.3,1.7c-0.2,1.2-0.3,2.3-0.3,3.5c0,6.5,2.5,10.7,6.6,13c1.3,0.8,1,2.4-0.7,2.5
		c-11.7,1-19.2,10-19.2,22.8c0,14.6,10.6,22.6,23.5,22.6c12.4,0,23.5-6.1,32.1-17.2c0.2,9.4,4,15.9,11.3,15.9
		c7.8,0,14.4-7.1,18.7-16h0.4c-1.3,9.1,1.9,16,9.4,16c7,0,12-5.7,16-12.5c1.8,6.8,7.2,12.4,17.7,12.4c11.1,0,18.8-6.2,24-12.8
		c0.3,7.6,4,12.9,11.9,12.9c15.8,0,24.2-21.1,27.5-27.3C393.8,296.6,389.6,293.4,387.8,296z M247.2,265.9c-3.2-0.3-6.3-1.6-9.3-3.3
		c0.6-0.1,1.1-0.1,1.7-0.1C243.7,262.5,246,263.9,247.2,265.9z M277.9,303.3c-3.4,0-5.5-2.2-5.5-5.9c0-4.8,3.6-10.2,9.3-10.2
		c3.5,0,5.7,2.2,5.7,5.8C287.5,297.6,283.6,303.3,277.9,303.3z M325.3,303.3c-3.6,0-6.1-2-6.1-4.6c2.5-3.2,5.9-7.7,8.7-11.7
		c1-1.4,1.9-1.4,2.6,0c1.5,3,2.4,5.7,2.4,8.3C332.9,299.8,330.1,303.3,325.3,303.3z"/>
	<g>
		<path d="M387.8,289.4c-2.2,3.4-5.7,5.5-10.1,5.5c-6.5,0-9.9-4.8-7.6-12.5c2.1-7.3,2.7-7.6,12.9-7.6c4.4,0,5.7-10.1,2.7-10.1h-5.7
			c-2.1,0-1.8-1.9-0.1-5.4c3.4-6.9,2-10.3-2.1-10.3c-2.7,0-5.2,1-7.8,7.3c-1.5,3.9-5,8.3-11.4,8.3c-2.5,0-2.4,8.4,3.9,8.4
			c-2.2,6.1-4.2,11.4-5.8,16.1c0,0-0.1,0.1-0.1,0.1c-2.2,3.3-4.5,5.7-7.8,5.8c-1.4-6.8-7.2-15.6-7.2-17.7c0-4.4,8-4.7,7.9-8.2
			c0.1-3.5-3.2-7.5-10-7.5c-9.4,0-17.2,16.3-25,26.9c0,0-0.4,0.6-0.4,0.7c-2.2,3.5-4.9,5.6-8.7,5.6c-4.8,0-6-4.4-2.3-12.4
			c2.4-6.4,5.3-9.8,5.3-13.9c0-2.4-1-4.1-3.8-4.1c-5.2,0-5.9,4.2-9.5,4.2c-2.9,0-2.4-4.2-11.2-4.2c-13.8,0-22.6,12.4-26.3,25
			c-3.7,5.3-11,8-19.3,8c-10.5,0-16.3-3.1-16.3-8.1c0-3.2,2-6.5,5-7.2c3.2,2.2,6.2,2.9,9.2,2.9c9,0,13.2-3.1,13.2-8.8
			c0-2.9-0.7-4.3-2.5-4.3c-3.1,0-7.2,1.1-13,1.1c-2.9-1.3-4.9-4.2-4.9-7.8c0-1.8,0.5-3.6,1.4-5.1c-0.1,0.2,7.4,5,8.1,5.4
			c2.7,1.5,5.8,2.4,8.9,2.3c2.7-0.2,5.8-0.5,7.9-2.3c2.1-1.7,3.3-4.3,3.8-6.8c0.3-1.3,0.4-2.7,0.4-4c0-6.2-2.9-17.2-19.4-17.2
			c-9.5,0-17,3-21.7,8.1c-5.5-1.9-11.1-3.2-16.8-4.4c-4.6-1-9.3-1.5-13.8,0.2c-4.1,1.5-7.9,4.3-10.4,7.9c-2.5,3.7-3.3,9,0,12.5
			c2.7,2.8,7,3.3,10.6,2.1c4.6-1.6,7-5.7,10.9-8.3c2.1-1.4,4.7-1.9,7.2-2c2.3-0.1,4.6,0.4,6.9,0.3c0.7,0,0.9-0.2,0.7,0.6
			c-0.1,0.6-0.2,1.1-0.3,1.7c-0.2,1.2-0.3,2.3-0.3,3.5c0,6.5,2.5,10.7,6.6,13c1.3,0.8,1,2.4-0.7,2.5c-11.7,1-19.2,10-19.2,22.8
			c0,14.6,10.6,22.6,23.5,22.6c12.4,0,23.5-6.1,32.1-17.2c0.2,9.4,4,15.9,11.3,15.9c7.8,0,14.4-7.1,18.7-16h0.4
			c-1.3,9.1,1.9,16,9.4,16c7,0,12-5.7,16-12.5c1.8,6.8,7.2,12.4,17.7,12.4c11.1,0,18.8-6.2,24-12.8c0.3,7.6,4,12.9,11.9,12.9
			c15.8,0,24.2-21.1,27.5-27.3C393.8,290,389.6,286.8,387.8,289.4z M247.2,259.3c-3.2-0.3-6.3-1.6-9.3-3.3c0.6-0.1,1.1-0.1,1.7-0.1
			C243.7,255.9,246,257.3,247.2,259.3z M277.9,296.7c-3.4,0-5.5-2.2-5.5-5.9c0-4.8,3.6-10.2,9.3-10.2c3.5,0,5.7,2.2,5.7,5.8
			C287.5,291,283.6,296.7,277.9,296.7z M325.3,296.7c-3.6,0-6.1-2-6.1-4.6c2.5-3.2,5.9-7.7,8.7-11.7c1-1.4,1.9-1.4,2.6,0
			c1.5,3,2.4,5.7,2.4,8.3C332.9,293.2,330.1,296.7,325.3,296.7z"/>
		<path class="st1" d="M223.5,321.2c-11.9,0-24-7.1-24-23.1c0-13.2,7.7-22.3,19.6-23.3c0.5,0,0.9-0.3,1-0.6c0.1-0.3-0.1-0.7-0.5-1
			c-4.5-2.5-6.8-7.2-6.8-13.5c0-1.2,0.1-2.4,0.3-3.6c0.1-0.6,0.2-1.2,0.3-1.7l-0.2,0c-1.2,0.1-2.5,0-3.7-0.1
			c-1.1-0.1-2.2-0.2-3.3-0.1c-2.8,0.1-5.2,0.7-7,1.9c-1.5,1-2.8,2.2-4,3.4c-2,1.9-4.1,3.9-7,4.9c-4.1,1.4-8.5,0.5-11.1-2.2
			c-3.6-3.8-2.6-9.3-0.1-13.1c2.4-3.5,6.2-6.4,10.6-8.1c4.7-1.8,9.5-1.1,14.1-0.2c5.4,1.1,11.1,2.4,16.5,4.3c4.9-5.2,12.6-8,21.8-8
			c18.5,0,19.9,13.6,19.9,17.7c0,1.4-0.1,2.8-0.4,4.1c-0.5,2.1-1.6,5.1-4,7.1c-2.2,1.8-5.3,2.2-8.2,2.4c-2.9,0.2-6-0.6-9.2-2.3
			c-0.1,0-5.8-3.6-7.8-5.1c-0.7,1.3-1.1,2.8-1.1,4.3c0,3.2,1.7,5.9,4.5,7.3c3.3,0,6-0.4,8.4-0.7c1.7-0.2,3.2-0.4,4.6-0.4
			c2.7,0,3,2.6,3,4.8c0,6.2-4.6,9.3-13.7,9.3c-3.5,0-6.5-0.9-9.3-2.8c-2.6,0.8-4.5,3.6-4.5,6.7c0,4.8,5.8,7.6,15.8,7.6
			c8.6,0,15.4-2.8,18.9-7.7c1.8-6,8.9-25.3,26.7-25.3c5.8,0,7.7,1.8,9.1,3c0.7,0.7,1.2,1.1,2.1,1.1c1.5,0,2.4-0.8,3.5-1.7
			c1.4-1.2,3-2.5,6-2.5c2,0,4.3,0.8,4.3,4.6c0,2.7-1.2,5.1-2.6,8.1c-0.8,1.7-1.8,3.6-2.7,6c-2.2,4.7-2.7,8.3-1.5,10.2
			c0.6,1,1.8,1.5,3.4,1.5c3.3,0,6-1.8,8.2-5.4c0.1-0.1,0.5-0.7,0.5-0.7c1.8-2.5,3.6-5.2,5.5-8.1c6.1-9.3,12.4-19,19.9-19
			c3.5,0,6.5,1.1,8.5,3.1c1.4,1.4,2.1,3.2,2,4.9c0.1,1.9-1.9,3-3.9,4c-2,1.1-4,2.2-4,4.2c0,0.8,1.1,3,2.3,5.3
			c1.8,3.5,4,7.9,4.9,11.8c2.5-0.2,4.5-1.9,7-5.6l0.1-0.1c1.1-3.1,2.3-6.4,3.6-10.1c0.6-1.7,1.3-3.5,1.9-5.4c-2-0.2-3.2-1.2-3.9-2.1
			c-0.9-1.1-1.4-2.6-1.4-4.1c0-1.9,0.8-3.2,2-3.2c7.1,0,10-5.6,10.9-8c2.6-6.4,5.1-7.7,8.3-7.7c1.8,0,3.1,0.6,3.8,1.8
			c1.2,1.9,0.7,5.1-1.3,9.2c-0.4,0.9-1.7,3.6-1.2,4.4c0.1,0.2,0.4,0.3,0.8,0.3h5.7c0.7,0,1.3,0.4,1.7,1.2c0.3,0.6,0.4,1.4,0.4,2.4
			c0,3.2-1.7,7.5-4.8,7.5c-10.1,0-10.5,0.2-12.5,7.2c-1.1,3.8-0.9,7,0.7,9.1c1.3,1.8,3.5,2.7,6.4,2.7c4,0,7.5-1.9,9.7-5.3l0,0
			c1-1.5,2.8-1.3,4.1-0.6c1.3,0.8,2.4,2.4,1.7,3.8c-0.3,0.7-0.8,1.5-1.2,2.4c-4,8.2-12.3,25.1-26.7,25.1c-7.2,0-11.6-4.4-12.4-12.1
			c-6.6,8-14.6,12-23.6,12c-9,0-15.4-4.2-17.8-11.6c-3.2,5.3-8.3,11.7-15.8,11.7c-3,0-5.5-1.1-7.3-3.1c-2.3-2.6-3.3-6.8-2.8-11.8
			c-5,9.5-11.7,14.9-18.5,14.9c-6.9,0-11.2-5.6-11.7-15C246.5,315.6,235.6,321.2,223.5,321.2z M213.8,253.4c0.2,0,0.4,0,0.6,0.2
			c0.2,0.3,0.2,0.7,0.1,1c-0.1,0.6-0.2,1.1-0.3,1.7c-0.2,1.1-0.3,2.3-0.3,3.4c0,5.9,2.2,10.3,6.3,12.6c0.8,0.5,1.2,1.3,1,2.1
			c-0.2,0.8-0.9,1.3-1.9,1.4c-11.4,1-18.7,9.7-18.7,22.3c0,15.3,11.5,22.1,23,22.1c12.1,0,23.1-5.9,31.7-17l0.9-1.1l0,1.4
			c0.2,9.6,4.2,15.4,10.8,15.4c6.7,0,13.4-5.7,18.3-15.7l0.1-0.3h1.3l-0.1,0.6c-0.8,5.5,0.1,10,2.4,12.7c1.6,1.8,3.8,2.8,6.5,2.8
			c5.7,0,10.7-3.9,15.6-12.2l0.6-1l0.3,1.2c1.2,4.5,5,12,17.2,12c9.1,0,17-4.2,23.6-12.6l0.8-1.1l0.1,1.4c0.3,8,4.4,12.4,11.4,12.4
			c13.8,0,21.9-16.6,25.8-24.6c0.5-1,0.9-1.8,1.2-2.5c0.4-0.8-0.3-1.9-1.3-2.5c-0.9-0.5-2.1-0.7-2.8,0.3c-2.4,3.7-6.1,5.7-10.5,5.7
			c-3.2,0-5.6-1.1-7.2-3.2c-1.8-2.4-2.1-5.9-0.9-10c2.2-7.7,3.2-7.9,13.4-7.9c2.5,0,3.8-3.9,3.8-6.5c0-0.8-0.1-1.5-0.3-1.9
			c-0.3-0.6-0.6-0.6-0.8-0.6h-5.7c-0.8,0-1.4-0.3-1.7-0.7c-0.6-0.9-0.3-2.4,1.1-5.3c1.9-3.8,2.3-6.7,1.4-8.3c-0.5-0.9-1.6-1.3-3-1.3
			c-2.2,0-4.6,0.5-7.3,7c-1,2.6-4.2,8.6-11.9,8.6c-0.6,0-1,1-1,2.2c0,1.3,0.4,2.5,1.2,3.5c0.9,1.1,2.2,1.7,3.8,1.7h0.7l-0.2,0.7
			c-0.8,2.1-1.5,4.1-2.2,6c-1.3,3.7-2.6,7-3.7,10.1l-0.1,0.2c-1.9,2.9-4.4,5.9-8.2,6l-0.4,0l-0.1-0.4c-0.8-3.9-3.1-8.4-4.9-12
			c-1.5-3-2.4-4.8-2.4-5.8c0-2.6,2.4-3.9,4.6-5c1.7-0.9,3.4-1.8,3.3-3.2c0-1.5-0.6-3-1.7-4.2c-1.7-1.8-4.5-2.7-7.7-2.7
			c-6.9,0-13.1,9.4-19.1,18.5c-1.8,2.8-3.7,5.6-5.5,8.1c0,0-0.4,0.6-0.5,0.7c-2.4,3.9-5.4,5.8-9.1,5.8c-1.9,0-3.4-0.7-4.2-2
			c-1.4-2.2-0.9-6.1,1.5-11.1c0.9-2.3,1.8-4.3,2.7-6c1.4-2.9,2.5-5.2,2.5-7.7c0-2.5-1-3.6-3.3-3.6c-2.6,0-4,1.1-5.4,2.2
			c-1.2,0.9-2.3,1.9-4.2,1.9c-1.2,0-2-0.7-2.7-1.4c-1.3-1.2-3.1-2.8-8.4-2.8c-17.3,0-24.1,18.9-25.8,24.7l-0.1,0.1
			c-3.6,5.2-10.8,8.2-19.7,8.2c-10.7,0-16.8-3.1-16.8-8.6c0-3.6,2.3-6.9,5.4-7.7l0.2-0.1l0.2,0.1c2.7,1.9,5.6,2.8,8.9,2.8
			c8.5,0,12.7-2.7,12.7-8.3c0-3.1-0.8-3.8-2-3.8c-1.3,0-2.7,0.2-4.4,0.4c-2.3,0.3-5.2,0.7-8.6,0.7l-0.2,0c-3.2-1.5-5.2-4.6-5.2-8.2
			c0-2,0.5-3.8,1.5-5.4l0,0l0.4,0.3l0.4-0.3c0.5,0.5,7.1,4.8,8,5.3c3,1.6,5.9,2.4,8.6,2.2c2.8-0.2,5.7-0.5,7.7-2.2
			c2.2-1.8,3.2-4.6,3.7-6.5c0.3-1.2,0.4-2.5,0.4-3.9c0-5-1.8-16.7-18.9-16.7c-9.1,0-16.7,2.8-21.3,8l-0.2,0.2l-0.3-0.1
			c-5.5-1.9-11.3-3.2-16.7-4.4c-4.4-0.9-9-1.6-13.5,0.1c-4.3,1.6-7.9,4.4-10.2,7.7c-2.3,3.4-3.2,8.4,0,11.8c2.3,2.5,6.3,3.2,10.1,2
			c2.7-0.9,4.6-2.7,6.6-4.7c1.3-1.2,2.6-2.5,4.2-3.5c2-1.3,4.5-2,7.5-2.1c1.1,0,2.3,0.1,3.4,0.1c1.2,0.1,2.4,0.2,3.6,0.1l0.3,0
			C213.6,253.4,213.7,253.4,213.8,253.4z M325.3,297.2c-3.8,0-6.6-2.1-6.6-5.1v-0.2l0.1-0.1c3.1-3.9,6.3-8.3,8.6-11.7
			c0.6-0.9,1.2-1.3,1.9-1.3c0.6,0,1.1,0.5,1.6,1.3c1.7,3.2,2.5,6,2.5,8.6C333.4,293.8,330.1,297.2,325.3,297.2z M319.7,292.3
			c0.1,2.3,2.4,3.9,5.6,3.9c4.3,0,7.1-2.9,7.1-7.5c0-2.4-0.8-5-2.4-8.1c-0.3-0.5-0.5-0.8-0.8-0.8c-0.2,0-0.6,0.3-1,0.9
			C325.9,284.1,322.7,288.4,319.7,292.3z M277.9,297.2c-3.7,0-6-2.5-6-6.4c0-5.2,3.9-10.7,9.8-10.7c3.8,0,6.2,2.4,6.2,6.3
			C288,291.5,283.7,297.2,277.9,297.2z M281.8,281.1c-5.3,0-8.8,5-8.8,9.7c0,3.4,1.8,5.4,5,5.4c5.6,0,9-5.7,9-9.8
			C287,283.1,285,281.1,281.8,281.1z M248.1,259.9l-1-0.1c-2.9-0.3-5.9-1.3-9.5-3.4l-1.4-0.8l1.6-0.2c0.7-0.1,1.2-0.1,1.8-0.1
			c3.9,0,6.5,1.2,8,3.6L248.1,259.9z M239.7,256.4c2.3,1.2,4.4,1.9,6.4,2.3C244.8,257.2,242.7,256.4,239.7,256.4z"/>
	</g>
	<rect x="400.5" y="287.8" class="st2" width="106.4" height="4.4"/>
	<rect x="400.5" y="294.3" class="st3" width="106.4" height="4.4"/>
	<path class="st3" d="M493,321.8v-12.7c0-0.6,0.3-1,0.6-1h1.5c0.3,0,0.6,0.4,0.6,1v5.4c0,0.7,0.5,1.2,0.9,0.9l17.9-14.8
		c0.6-0.5,0.4-1.9-0.3-1.9h-8.5c-0.3,0-0.6-0.4-0.6-1v-2.5c0-0.6,0.3-1,0.6-1h20.1c0.6,0,0.8,1.4,0.3,1.9l-32.2,26.6
		C493.4,323,493,322.6,493,321.8z"/>
	<path class="st2" d="M525.7,292.3h-20.1c-0.3,0-0.6-0.4-0.6-1v-2.5c0-0.6,0.3-1,0.6-1h8.5c0.6,0,0.8-1.4,0.3-1.9l-17.9-14.8
		c-0.4-0.3-0.9,0.2-0.9,0.9v5.4c0,0.6-0.3,1-0.6,1h-1.5c-0.3,0-0.6-0.4-0.6-1v-12.7c0-0.7,0.5-1.2,0.9-0.9l32.2,26.6
		C526.6,290.8,526.4,292.3,525.7,292.3z"/>
	<path class="st4" d="M499.2,300.6h-98.2c-0.3,0-0.6,0.5-0.6,1v2.4c0,0.6,0.3,1,0.6,1h95.7c0.3,0,0.6,0.5,0.6,1l0,4.3
		c0,0.8,0.5,1.2,0.9,0.9l10.5-8.7c0.6-0.5,0.4-1.9-0.3-1.9H499.2z"/>
	<path class="st0" d="M496.9,276.1l0,4.3c0,0.6-0.3,1-0.6,1h-95.3c-0.3,0-0.6,0.5-0.6,1v2.4c0,0.6,0.3,1,0.6,1h97.7h0.5h8.8
		c0.6,0,0.8-1.4,0.3-1.9l-10.5-8.7C497.4,274.9,496.9,275.3,496.9,276.1z"/>
	<g>
		<g>
			<path d="M328.8,345.8c-1.1,1.6-2.1,2.8-3.8,2.8c-1.8,0-2.6-0.9-2.6-2.7c0-2.7,1.7-4.5,1.7-7.3c0-2.7-1.6-5-4.9-5
				c-2.4,0-4.6,1.1-6.6,3.1c-1.7,1.7-2.8,1.1-2.8-1c0-1.1-0.3-2.1-1.8-2.1c-2,0-4.7,5.9-6.5,12.3c0,0,0,0,0,0
				c-1.3,1.9-2.8,2.7-4.4,2.7h-0.4c0.5-1.8,0.8-3.7,0.8-5.6c0-6.9-3.5-9.4-7.9-9.4c-8.7,0-15,9.9-15,18.1c0,5.7,3.5,9.1,8.4,9.1
				c4.1,0,7.9-2.4,10.7-6.1h0.7c2.3,0,4.2-0.8,5.6-2c-0.2,1.6-0.3,3-0.3,4.1c0,2.3,1.4,4,4,4c3.8,0,4.5-3,4.5-5.8v-2.4
				c0-4.8,2.7-9.4,5.9-9.4c1.3,0,2.1,0.7,2.1,1.9c0,2.2-2.3,5.9-2.3,10c0,3,1.2,5.7,4.6,5.7c7.3,0,11-10.6,12.8-13.6
				C331.9,346.1,329.7,344.5,328.8,345.8z M286.3,349.5c-2.1,0-2.8-1.4-2.8-2.9c0-2.4,1.8-5.1,4.5-5.1c2.1,0,3,1.3,3,2.9
				C290.9,346.6,289,349.5,286.3,349.5z"/>
			<path class="st1" d="M318.5,361.2c-3.3,0-5.1-2.2-5.1-6.2c0-2.5,0.8-4.8,1.4-6.6c0.5-1.3,0.9-2.5,0.9-3.4c0-1.2-0.9-1.4-1.6-1.4
				c-2.8,0-5.4,4.2-5.4,8.9v2.4c0,4.2-1.7,6.3-5,6.3c-2.7,0-4.5-1.8-4.5-4.5c0-0.9,0.1-1.9,0.2-3.1c-1.5,0.9-3.2,1.4-5,1.4h-0.4
				c-2.9,3.9-6.9,6.1-10.9,6.1c-5.3,0-8.9-3.9-8.9-9.6c0-8.6,6.8-18.6,15.5-18.6c3.2,0,8.4,1.3,8.4,9.9c0,1.7-0.2,3.5-0.7,5.1
				c1.4-0.1,2.6-0.9,3.6-2.4c1.7-5.8,4.5-12.6,7-12.6c1,0,2.3,0.4,2.3,2.6c0,1,0.2,1.4,0.5,1.5c0.2,0.1,0.8-0.1,1.5-0.8
				c2.2-2.2,4.5-3.2,6.9-3.2c3.3,0,5.4,2.2,5.4,5.5c0,1.6-0.5,2.8-0.9,4c-0.4,1.1-0.8,2.1-0.8,3.4c0,1.6,0.6,2.2,2.1,2.2
				c1.4,0,2.3-0.9,3.3-2.6l0,0c0.5-0.8,1.5-0.9,2.4-0.4c0.8,0.5,1.3,1.4,0.9,2.3c-0.3,0.5-0.6,1.2-1,2
				C328.7,353.5,325,361.2,318.5,361.2z M314.1,342.6c1.6,0,2.6,0.9,2.6,2.4c0,1-0.4,2.3-0.9,3.7c-0.6,1.9-1.4,4-1.4,6.3
				c0,2.4,0.7,5.2,4.1,5.2c5.8,0,9.3-7.1,11.3-11.3c0.4-0.8,0.7-1.5,1-2c0.1-0.2-0.1-0.6-0.5-0.9c-0.2-0.1-0.7-0.4-1.1,0.1
				c-1,1.5-2.2,3-4.2,3c-2.1,0-3.1-1.1-3.1-3.2c0-1.4,0.4-2.6,0.9-3.7c0.4-1.1,0.9-2.2,0.9-3.6c0-2.2-1.2-4.5-4.4-4.5
				c-2.1,0-4.2,1-6.2,3c-1.2,1.2-2.1,1.2-2.6,1c-0.5-0.2-1.1-0.8-1.1-2.4c0-1.3-0.5-1.6-1.3-1.6c-1.3,0-3.9,4.5-6,11.9l-0.1,0.1
				c-1.3,1.9-2.9,2.9-4.8,2.9h-1.1l0.2-0.6c0.5-1.7,0.8-3.6,0.8-5.5c0-5.8-2.6-8.9-7.4-8.9c-8.1,0-14.5,9.4-14.5,17.6
				c0,5.2,3.2,8.6,7.9,8.6c3.8,0,7.5-2.1,10.3-5.9l0.1-0.2h0.9c2,0,3.8-0.6,5.3-1.9l1-0.8l-0.2,1.3c-0.2,1.5-0.3,3-0.3,4.1
				c0,2.1,1.3,3.5,3.5,3.5c2.7,0,4-1.7,4-5.3v-2.4C307.7,347.3,310.7,342.6,314.1,342.6z M286.3,350c-2.1,0-3.3-1.3-3.3-3.4
				c0-2.7,2-5.6,5-5.6c2.2,0,3.5,1.3,3.5,3.4C291.4,347,289.2,350,286.3,350z M287.9,342c-2.3,0-4,2.4-4,4.6c0,1.1,0.4,2.4,2.3,2.4
				c2.3,0,4.1-2.5,4.1-4.6C290.4,343.5,290.1,342,287.9,342z"/>
		</g>
		<g>
			<path d="M341.4,356c0-6.2,4-12.4,10.1-12.4c0.6,0,1.1,0.4,1.1,0.9c0,3.4,3.3,5.6,7.5,5.6c4.7,0,10.7-3.9,14.3-13
				c1.3-3.4,2.7-7.3,4-10.6c1-2.7,2.7-3.7,4.9-3.7c3.2,0,3.9,1.6,3.4,4.1c-1.1,5-6.7,15.5-6.7,20.1c0,2,1.1,3.5,3.7,3.5
				c6.6,0,11.4-10.3,11.4-19.3c0-6.5-3-12.2-13.5-12.2c-7.2,0-14.2,3.3-14.2,11.2c0,2.2,1.2,3.9,2.9,3.9c2.1,0.3-2.6,9.9-10,9.9
				c-6.2,0-9.5-5.3-9.5-11.1c0-13,12.3-24.1,29.7-24.1c19.4,0,26,11.3,26,24.3c0,16.2-10.6,33.1-22.8,33.1
				c-6.3,0-10.1-4.1-10.5-10.4c-4.3,7.9-10.8,12.9-18.7,12.9C345.2,368.7,341.4,362.3,341.4,356z"/>
			<path class="st1" d="M354.6,369.2c-10.1,0-13.7-7.2-13.7-13.3c0-6.2,4.1-12.9,10.6-12.9c0.9,0,1.6,0.6,1.6,1.4c0,3,2.9,5.1,7,5.1
				c4.1,0,10.2-3.3,13.9-12.7l0.8-2.2c1.1-2.8,2.2-5.8,3.2-8.4c1-2.7,2.8-4,5.4-4c1.6,0,2.7,0.4,3.4,1.2c0.6,0.8,0.8,1.9,0.5,3.5
				c-0.5,2.1-1.7,5.1-3,8.4c-1.7,4.3-3.7,9.1-3.7,11.6c0,1.4,0.5,3,3.2,3c6.3,0,10.9-9.9,10.9-18.8c0-7.8-4.4-11.7-13-11.7
				c-6.3,0-13.7,2.8-13.7,10.7c0,1.9,1,3.4,2.4,3.4c0.3,0,1.1,0.3,1,1.5c-0.2,2.8-4.7,9.4-11,9.4c-6.9,0-10-6-10-11.6
				c0-13.8,13.3-24.6,30.2-24.6c23,0,26.5,15.5,26.5,24.8c0,17.3-11.3,33.6-23.3,33.6c-5.9,0-9.9-3.5-10.8-9.3
				C368.4,365.1,361.9,369.2,354.6,369.2z M351.5,344c-5.9,0-9.6,6.2-9.6,11.9c0,5.7,3.3,12.3,12.7,12.3c7.4,0,13.8-4.5,18.2-12.6
				l0.8-1.5l0.1,1.8c0.4,6.2,4.1,10,10,10c11.4,0,22.3-15.9,22.3-32.6c0-8.9-3.3-23.8-25.5-23.8c-16.4,0-29.2,10.4-29.2,23.6
				c0,5.1,2.8,10.6,9,10.6c4.8,0,8.6-4.4,9.7-7.4c0.4-1.1,0.3-1.5,0.2-1.5c-1.9,0-3.3-1.9-3.3-4.4c0-8.6,7.9-11.7,14.7-11.7
				c9.1,0,14,4.4,14,12.7c0,9.3-5.1,19.8-11.9,19.8c-2.6,0-4.2-1.5-4.2-4c0-2.8,1.9-7.5,3.8-12c1.3-3.2,2.5-6.2,2.9-8.2
				c0.3-1.3,0.2-2.1-0.3-2.7c-0.4-0.5-1.3-0.8-2.6-0.8c-2.2,0-3.6,1-4.5,3.3c-1,2.6-2.1,5.5-3.2,8.4l-0.8,2.2
				c-3.9,9.9-10.4,13.3-14.8,13.3c-4.6,0-8-2.6-8-6.1C352.2,344.2,351.9,344,351.5,344z"/>
		</g>
		<g>
			<g>
				<path d="M421.7,324.4c4,0,7.1-1.5,7.5-6.2c0.4-4.7-2.7-6.2-6.6-6.2c-4.2,0-7.6,1.6-7.6,7C415,323,418.1,324.4,421.7,324.4z"/>
				<path class="st1" d="M421.7,324.9c-4.6,0-7.2-2.1-7.2-5.9c0-4.9,2.8-7.5,8.1-7.5c2.7,0,4.6,0.7,5.8,2c1,1.1,1.5,2.7,1.3,4.8
					C429.3,322.6,426.6,324.9,421.7,324.9z M422.6,312.4c-4.8,0-7.1,2.1-7.1,6.5c0,4.1,3.4,4.9,6.2,4.9c4.4,0,6.7-1.9,7-5.8
					c0.1-1.7-0.2-3.1-1.1-4C426.7,313,425,312.4,422.6,312.4z"/>
			</g>
			<g>
				<path d="M474.4,324.4c4,0,7.1-1.5,7.5-6.2c0.4-4.7-2.7-6.2-6.6-6.2c-4.2,0-7.6,1.6-7.6,7C467.7,323,470.8,324.4,474.4,324.4z"/>
				<path class="st1" d="M474.4,324.9c-4.6,0-7.2-2.1-7.2-5.9c0-4.9,2.8-7.5,8.1-7.5c2.7,0,4.6,0.7,5.8,2c1,1.1,1.5,2.7,1.3,4.8
					C482,322.6,479.3,324.9,474.4,324.9z M475.3,312.4c-4.8,0-7.1,2.1-7.1,6.5c0,4.1,3.4,4.9,6.2,4.9c4.4,0,6.7-1.9,7-5.8
					c0.1-1.7-0.2-3.1-1.1-4C479.4,313,477.7,312.4,475.3,312.4z"/>
			</g>
			<g>
				<path d="M522.6,324.4c4,0,7.1-1.5,7.5-6.2c0.4-4.7-2.7-6.2-6.6-6.2c-4.2,0-7.6,1.6-7.6,7C515.9,323,519,324.4,522.6,324.4z"/>
				<path class="st1" d="M522.6,324.9c-4.6,0-7.2-2.1-7.2-5.9c0-4.9,2.8-7.5,8.1-7.5c2.7,0,4.6,0.7,5.8,2c1,1.1,1.5,2.7,1.3,4.8
					C530.2,322.6,527.5,324.9,522.6,324.9z M523.5,312.4c-4.8,0-7.1,2.1-7.1,6.5c0,4.1,3.4,4.9,6.2,4.9c4.4,0,6.7-1.9,7-5.8
					c0.1-1.7-0.2-3.1-1.1-4C527.6,313,525.9,312.4,523.5,312.4z"/>
			</g>
			<g>
				<path d="M602.2,344.7c-1.5,2.3-3,3.9-5.3,3.9c-2.5,0-3.7-1.2-3.7-3.8c0-3.8,2.4-6.2,2.4-10.3c0-3.8-2.2-7-6.9-7
					c-3.4,0-6.4,1.6-9.2,4.3c-2.4,2.4-4,1.5-4-1.4c0-1.5-0.5-2.9-2.5-2.9c-2.8,0-6.6,8.3-9.1,17.2c0,0,0,0,0,0
					c-1.8,2.7-3.9,3.7-6.1,3.7h-0.5c0.8-2.5,1.1-5.2,1.1-7.8c0-9.6-4.9-13.1-11.1-13.1c-9.4,0-16.7,8.3-19.6,17.3
					c-1.5,2.2-2.9,3.7-5.2,3.7c-2.1,0-3.4-1.3-3.4-3.8c0-4.1,3.4-9.1,3.4-13.8c0-2.4-1-3.4-2.6-3.4c-4.3,0-7.5,6.2-11,17.2
					c0,0.1,0,0.1-0.1,0.2c-1.5,2.2-3.1,3.8-5.3,3.8c-1-4.7-5-10.8-5-12.3c0-3,5.6-3.3,5.5-5.7c0.1-2.4-2.2-5.2-6.9-5.2
					c-6.5,0-12,11.3-17.4,18.7l-0.3,0.5c-0.1,0.2-0.2,0.4-0.3,0.6c-1.4,2-2.8,3.2-4.9,3.2c-2.1,0-3.4-1.3-3.4-3.8
					c0-4.1,3.4-9.1,3.4-13.8c0-2.4-1-3.4-2.6-3.4c-4.3,0-7.5,6.2-11,17.2c0,0,0,0,0,0c-1.8,2.7-3.9,3.7-6.1,3.7
					c-1.1,0-2-0.2-2.7-0.5c6.2-12,7.1-20.6,0.7-20.6c-5.3,0-7.6,5.7-7.6,12.4c0,2.4,0.3,4.7,0.8,7.1c-0.8,1.1-2.4,3-5.6,3
					c-3.1,0-4.5-1.8-4.5-4.7c0-4.5,3.4-10.3,3.4-14.5c0-2.2-0.8-3-2.4-3c-4.2,0-8.3,9.2-10.2,17.2c0,0.2-0.1,0.3-0.1,0.5
					c-1.4,2-2.8,3.3-4.9,3.3c-2.1,0-3.4-1.3-3.4-3.8c0-4.1,3.4-9.1,3.4-13.8c0-2.4-1-3.4-2.6-3.4c-4.3,0-7.5,6.2-11,17.2
					c-1.1,3.7-1.9,7.8-1.9,11.3c0,5.3,1.9,9.5,7,9.5c5.8,0,9.8-5.2,12.7-10.3c0.7,5.7,3.3,10.2,8.5,10.2c4.6,0,9.1-4.1,12.9-9.6
					c1.1,0.8,2.3,1.1,3.6,1.1c3.4,0,6-1.2,8.1-3c0,0.7-0.1,1.4-0.1,2c0,5.3,1.9,9.5,7,9.5c5.2,0,9-4.2,11.8-8.7
					c1.2,4.8,5,8.6,12.3,8.6c8,0,13.5-4.6,17.1-9.5c0,0,0,0,0,0c0,5.3,1.9,9.5,7,9.5c5.7,0,9.7-5,12.6-10c1,6.3,5.6,10,11.6,10
					c5.7,0,11.1-3.3,14.9-8.5h0.9c3.3,0,5.8-1.1,7.9-2.8c-0.3,2.2-0.5,4.2-0.5,5.8c0,3.2,2,5.6,5.6,5.6c5.3,0,6.2-4.2,6.2-8.1v-3.4
					c0-6.8,3.8-13.1,8.2-13.1c1.8,0,2.9,0.9,2.9,2.7c0,3.1-3.2,8.2-3.2,14c0,4.3,1.7,7.9,6.5,7.9c10.3,0,15.5-14.8,17.9-19
					C606.5,345.1,603.4,342.9,602.2,344.7z M487.3,349.8c-2.5,0-4.2-1.3-4.3-3.1c0,0,0-0.1,0.1-0.1c0,0,0,0,0,0
					c1.7-2.2,4.1-5.3,5.9-8c0.7-1,1.3-1,1.8,0c1.1,2.1,1.7,4,1.7,5.8C492.6,347.4,490.7,349.8,487.3,349.8z M542.7,349.8
					c-2.9,0-4-1.9-4-4.1c0-3.4,2.5-7.1,6.2-7.1c3,0,4.2,1.8,4.2,4C549.1,345.8,546.5,349.8,542.7,349.8z"/>
				<path class="st1" d="M587.7,366.1c-4.4,0-7-3.1-7-8.4c0-3.4,1.1-6.6,2-9.2c0.6-1.9,1.2-3.5,1.2-4.8c0-1.9-1.5-2.2-2.4-2.2
					c-4,0-7.7,6-7.7,12.6v3.4c0,5.7-2.3,8.6-6.7,8.6c-3.7,0-6.1-2.4-6.1-6.1c0-1.3,0.1-2.9,0.3-4.7c-2.1,1.5-4.5,2.2-7.2,2.2h-0.7
					c-4.1,5.4-9.6,8.5-15.2,8.5c-5.9,0-10.4-3.5-11.8-9.1c-3.8,6.1-7.8,9.1-12.3,9.1c-4.5,0-7.1-3.1-7.5-8.7
					c-4.7,5.7-10.3,8.6-16.7,8.6c-6.2,0-10.7-2.9-12.4-7.9c-3.5,5.4-7.4,8-11.6,8c-4.8,0-7.5-3.6-7.5-10c0-0.3,0-0.6,0-0.9
					c-2.2,1.6-4.7,2.4-7.5,2.4c-1.2,0-2.4-0.3-3.4-1c-4.4,6.2-8.8,9.4-13.1,9.4c-4.5,0-7.7-3.3-8.7-9.2c-3.8,6.2-7.9,9.3-12.4,9.3
					c-4.8,0-7.5-3.6-7.5-10c0-3.4,0.7-7.5,1.9-11.5c3.3-10.5,6.6-17.6,11.4-17.6c1.4,0,3.1,0.7,3.1,3.9c0,2.5-0.9,5-1.8,7.5
					c-0.8,2.3-1.6,4.4-1.6,6.3c0,2.1,1,3.3,2.9,3.3c1.9,0,3.2-1.2,4.4-3l0.1-0.4c2-8.5,6.2-17.6,10.7-17.6c1.9,0,2.9,1.2,2.9,3.5
					c0,2.2-0.9,4.8-1.7,7.2c-0.8,2.5-1.7,5.1-1.7,7.3c0,2.8,1.3,4.2,4,4.2c2.1,0,3.8-0.9,5-2.6c-0.5-2.5-0.8-4.7-0.8-7
					c0-8,3.1-12.9,8.1-12.9c1.9,0,3.2,0.7,4,2c2,3.2,0.5,9.9-4,18.8c0.6,0.2,1.3,0.2,2,0.2c2.2,0,4-1.1,5.6-3.5
					c3.3-10.5,6.6-17.5,11.4-17.5c1.4,0,3.1,0.7,3.1,3.9c0,2.5-0.9,5-1.8,7.5c-0.8,2.3-1.6,4.4-1.6,6.3c0,2.1,1,3.3,2.9,3.3
					c1.9,0,3.2-1.2,4.4-3c0.1-0.2,0.2-0.4,0.3-0.5l0.3-0.5c1.3-1.7,2.5-3.6,3.8-5.6c4.3-6.5,8.7-13.2,13.9-13.2c2.5,0,4.6,0.8,6,2.2
					c1,1,1.5,2.3,1.4,3.5c0,1.4-1.4,2.2-2.8,2.9c-1.4,0.7-2.7,1.5-2.7,2.8c0,0.5,0.8,2.1,1.6,3.6c1.2,2.4,2.7,5.4,3.4,8.1
					c1.5-0.2,2.9-1.3,4.4-3.5l0-0.1c3.3-10.5,6.6-17.6,11.4-17.6c1.4,0,3.1,0.7,3.1,3.9c0,2.5-0.9,5-1.8,7.5
					c-0.8,2.3-1.6,4.4-1.6,6.3c0,2.1,1,3.3,2.9,3.3c2,0,3.3-1.3,4.7-3.4c2.8-8.8,10.1-17.6,20.1-17.6c4.3,0,11.6,1.8,11.6,13.6
					c0,2.5-0.3,5-1,7.3c2.1,0,3.9-1.2,5.5-3.5c2.3-8.1,6.2-17.5,9.6-17.5c2,0,3,1.1,3,3.4c0,1.2,0.3,2.1,0.8,2.3
					c0.5,0.2,1.4-0.2,2.3-1.2c3.1-3,6.2-4.5,9.6-4.5c4.5,0,7.4,2.9,7.4,7.5c0,2.1-0.6,3.8-1.3,5.5c-0.6,1.6-1.2,3-1.2,4.8
					c0,2.3,0.9,3.3,3.2,3.3c2,0,3.3-1.4,4.8-3.7l0,0c0.7-1,1.9-1.2,3.1-0.5c1,0.6,1.8,1.8,1.2,2.9c-0.4,0.7-0.9,1.6-1.4,2.8
					C601.9,355.4,596.6,366.1,587.7,366.1z M581.6,340.5c2.1,0,3.4,1.2,3.4,3.2c0,1.4-0.6,3.1-1.3,5.1c-0.9,2.7-1.9,5.7-1.9,8.9
					c0,3.4,1,7.4,6,7.4c8.3,0,13.1-9.9,16-15.9c0.6-1.1,1-2.1,1.4-2.8c0.3-0.5-0.2-1.2-0.8-1.5c-0.2-0.1-1.2-0.7-1.8,0.2l0,0
					c-1.7,2.5-3.2,4.1-5.7,4.1c-2.8,0-4.2-1.4-4.2-4.3c0-2,0.6-3.6,1.2-5.2c0.6-1.6,1.2-3.2,1.2-5.1c0-3.1-1.7-6.5-6.4-6.5
					c-3.1,0-6,1.4-8.9,4.2c-1.7,1.7-2.8,1.7-3.4,1.4c-0.6-0.3-1.4-1-1.4-3.2c0-1.7-0.6-2.4-2-2.4c-2.2,0-5.9,7.2-8.7,16.8l0,0.2
					l-0.1,0.1c-1.8,2.6-3.9,3.9-6.4,3.9h-1.2l0.2-0.6c0.7-2.5,1.1-5,1.1-7.7c0-10.4-5.8-12.6-10.6-12.6c-9.5,0-16.5,8.5-19.2,16.9
					l-0.1,0.1c-1.6,2.4-3.2,3.9-5.6,3.9c-2.4,0-3.9-1.7-3.9-4.3c0-2.1,0.8-4.3,1.7-6.6c0.9-2.4,1.8-4.8,1.8-7.1
					c0-2.6-1.2-2.9-2.1-2.9c-3.7,0-6.7,4.9-10.5,16.9l-0.1,0.3c-1.3,2-3,4-5.7,4.1l-0.4,0l-0.1-0.4c-0.6-2.7-2.1-5.8-3.4-8.3
					c-1.1-2.2-1.7-3.4-1.7-4.1c0-1.9,1.7-2.8,3.2-3.6c1.2-0.6,2.3-1.2,2.2-2.1c0-1-0.4-2-1.2-2.8c-1.2-1.2-3-1.9-5.3-1.9
					c-4.7,0-9,6.5-13.1,12.8c-1.3,1.9-2.6,3.9-3.9,5.7L480,345c-0.1,0.2-0.2,0.4-0.3,0.5c-1.3,1.8-2.8,3.5-5.3,3.5
					c-2.4,0-3.9-1.7-3.9-4.3c0-2.1,0.8-4.3,1.7-6.6c0.9-2.4,1.8-4.8,1.8-7.1c0-2.6-1.2-2.9-2.1-2.9c-3.7,0-6.7,4.9-10.5,16.9
					l-0.1,0.3h-0.1c-1.8,2.5-3.9,3.7-6.3,3.7c-1.1,0-2.1-0.2-2.9-0.5l-0.5-0.2l0.3-0.5c4.5-8.6,6.1-15.5,4.3-18.4
					c-0.6-1-1.7-1.5-3.2-1.5c-5.2,0-7.1,6.2-7.1,11.9c0,2.3,0.3,4.5,0.8,7l0,0.2l-0.1,0.2c-1.4,2.1-3.4,3.2-6,3.2
					c-3.2,0-5-1.9-5-5.2c0-2.4,0.9-5,1.8-7.6c0.9-2.5,1.7-4.9,1.7-6.9c0-2.2-0.9-2.5-1.9-2.5c-3.7,0-7.8,8.7-9.7,16.8l-0.2,0.7
					c-1.3,1.8-2.8,3.5-5.3,3.5c-2.4,0-3.9-1.7-3.9-4.3c0-2.1,0.8-4.3,1.7-6.6c0.9-2.4,1.8-4.8,1.8-7.1c0-2.6-1.2-2.9-2.1-2.9
					c-3.7,0-6.7,4.9-10.5,16.9c-1.2,3.9-1.9,7.9-1.9,11.2c0,4.1,1.1,9,6.5,9c4.5,0,8.5-3.3,12.3-10l0.8-1.3l0.2,1.5
					c0.3,2.9,1.8,9.7,8,9.7c3.9,0,8.3-3.2,12.5-9.4l0.3-0.4l0.4,0.3c1,0.7,2.1,1.1,3.3,1.1c3,0,5.5-0.9,7.8-2.9l0.9-0.8l-0.1,1.2
					c-0.1,0.8-0.1,1.4-0.1,2c0,4.1,1.1,9,6.5,9c4.1,0,7.9-2.8,11.4-8.5l0.6-1l0.3,1.1c0.8,3.1,3.4,8.2,11.8,8.2
					c6.5,0,12.1-3.1,16.7-9.3l0.9-1.2v1.5c0,4.1,1.1,9,6.5,9c4.4,0,8.4-3.2,12.1-9.7l0.7-1.2l0.2,1.4c1,5.9,5.2,9.6,11.1,9.6
					c5.3,0,10.6-3,14.5-8.3l0.1-0.2h1.2c2.8,0,5.4-0.9,7.5-2.7l1-0.8l-0.2,1.3c-0.3,2.2-0.5,4.1-0.5,5.7c0,3.1,1.9,5.1,5.1,5.1
					c3.9,0,5.7-2.4,5.7-7.6v-3.4C572.9,346.8,576.9,340.5,581.6,340.5z M542.7,350.3c-2.8,0-4.5-1.7-4.5-4.6c0-3.7,2.7-7.6,6.7-7.6
					c2.9,0,4.7,1.7,4.7,4.5C549.6,346.2,546.7,350.3,542.7,350.3z M544.9,339.1c-3.4,0-5.7,3.5-5.7,6.6c0,1.6,0.6,3.6,3.5,3.6
					c3.4,0,6-3.6,6-6.7C548.6,341.3,548.2,339.1,544.9,339.1z M487.3,350.3c-2.7,0-4.7-1.5-4.8-3.6l0-0.1l0.1-0.1l0.5,0.1l-0.4-0.2
					l0.1-0.1c1-1.3,3.6-4.7,5.9-8c0.5-0.7,0.9-1,1.4-1c0.5,0,0.9,0.4,1.2,1c1.2,2.3,1.7,4.2,1.7,6
					C493.1,347.9,490.7,350.3,487.3,350.3z M483.5,346.8c0.1,1.5,1.7,2.5,3.8,2.5c2.9,0,4.8-2,4.8-5.1c0-1.6-0.5-3.5-1.6-5.6
					c-0.2-0.4-0.4-0.5-0.4-0.5c-0.1,0-0.3,0.1-0.6,0.5C487.2,342.1,484.6,345.4,483.5,346.8L483.5,346.8z"/>
			</g>
		</g>
	</g>
</g>
</svg>
